<svg width="100" height="100" viewBox="0 0 100 100" fill="none" xmlns="http://www.w3.org/2000/svg">
<path opacity="0.1" d="M87.5 50C87.5 70.7108 70.7108 87.5 50 87.5C29.2893 87.5 12.5 70.7108 12.5 50C12.5 29.2893 29.2893 12.5 50 12.5C70.7108 12.5 87.5 29.2893 87.5 50Z" fill="#323232"/>
<path d="M87.5 50C87.5 70.7108 70.7108 87.5 50 87.5C29.2893 87.5 12.5 70.7108 12.5 50C12.5 29.2893 29.2893 12.5 50 12.5C70.7108 12.5 87.5 29.2893 87.5 50Z" stroke="#46733F" stroke-width="2.5"/>
<path d="M66.6666 50H33.3333" stroke="#46733F" stroke-width="2.5" stroke-linecap="round" stroke-linejoin="round"/>
<path d="M54.1667 62.5L66.3042 50.3625C66.5042 50.1625 66.5042 49.8375 66.3042 49.6375L54.1667 37.5" stroke="#46733F" stroke-width="2.5" stroke-linecap="round" stroke-linejoin="round"/>
</svg>
