<svg width="100" height="100" viewBox="0 0 100 100" fill="none" xmlns="http://www.w3.org/2000/svg">
<path opacity="0.1" d="M87.5 50C87.5 70.7108 70.7108 87.5 50 87.5C29.2893 87.5 12.5 70.7108 12.5 50C12.5 29.2893 29.2893 12.5 50 12.5C70.7108 12.5 87.5 29.2893 87.5 50Z" fill="#323232"/>
<path d="M87.5 50C87.5 70.7108 70.7108 87.5 50 87.5C29.2893 87.5 12.5 70.7108 12.5 50C12.5 29.2893 29.2893 12.5 50 12.5C70.7108 12.5 87.5 29.2893 87.5 50Z" stroke="#46733F" stroke-width="2.5"/>
<path d="M33.3333 50H66.6666" stroke="#46733F" stroke-width="2.5" stroke-linecap="round" stroke-linejoin="round"/>
<path d="M45.8335 37.5L33.6961 49.6375C33.4958 49.8375 33.4958 50.1625 33.6961 50.3625L45.8335 62.5" stroke="#46733F" stroke-width="2.5" stroke-linecap="round" stroke-linejoin="round"/>
</svg>
