<svg width="25" height="25" viewBox="0 0 25 25" fill="none" xmlns="http://www.w3.org/2000/svg">
<path fill-rule="evenodd" clip-rule="evenodd" d="M1.04167 1.04163C0.46637 1.04163 0 1.508 0 2.08329C0 2.65858 0.46637 3.12496 1.04167 3.12496H3.34007L6.2346 15.5301C6.66545 17.3766 8.28631 18.6941 10.1716 18.7482V18.75H18.3202C20.3502 18.75 22.0848 17.287 22.4272 15.2861L23.7351 7.64302C23.9528 6.37049 22.9726 5.20829 21.6816 5.20829H5.96548L5.18108 1.84659C5.07108 1.37515 4.65078 1.04163 4.16667 1.04163H1.04167ZM6.45159 7.29163L8.26344 15.0567C8.48345 15.9995 9.32405 16.6666 10.2923 16.6666H18.3202C19.3352 16.6666 20.2025 15.9352 20.3737 14.9346L21.6816 7.29163H6.45159Z" fill="#46733F"/>
<path d="M8.33333 23.9583C9.48393 23.9583 10.4167 23.0256 10.4167 21.875C10.4167 20.7243 9.48393 19.7916 8.33333 19.7916C7.18274 19.7916 6.25 20.7243 6.25 21.875C6.25 23.0256 7.18274 23.9583 8.33333 23.9583Z" fill="#46733F"/>
<path d="M19.7916 23.9583C20.9423 23.9583 21.875 23.0256 21.875 21.875C21.875 20.7243 20.9423 19.7916 19.7916 19.7916C18.641 19.7916 17.7083 20.7243 17.7083 21.875C17.7083 23.0256 18.641 23.9583 19.7916 23.9583Z" fill="#46733F"/>
</svg>
