<svg width="116" height="84" viewBox="0 0 116 84" fill="none" xmlns="http://www.w3.org/2000/svg">
<g clip-path="url(#clip0_1_142)">
<path d="M58.9837 41.2246C58.9502 41.2003 58.8197 41.1058 58.7864 41.0817C43.7633 30.2029 -2.66018 42.1588 2.49343 52.4251C4.74387 56.9081 9.41264 59.9118 13.9584 61.8732C17.3042 63.3167 20.3814 65.0625 23.1165 67.0546C25.8678 69.0348 28.2782 71.2634 30.2718 73.6863C32.9803 76.978 37.1282 80.3587 43.319 81.9885C57.4964 85.7206 74.0066 52.1034 58.9837 41.2246Z" fill="#FDBF00"/>
<path d="M49.4771 9.27651C46.3109 15.3242 46.7192 29.3343 55.0709 31.6272C63.4227 33.92 76.5545 23.6272 79.7209 17.5797C82.8871 11.5319 78.6837 4.77071 70.3322 2.47794C61.9806 0.184675 52.6436 3.22868 49.4771 9.27651Z" fill="#FDBF00"/>
<path d="M5.70721 18.087C7.22132 23.516 16.3416 33.5351 23.8387 32.4387C31.3359 31.3423 34.3709 19.5452 32.8566 14.1162C31.3425 8.68726 24.0372 5.17518 16.54 6.27177C9.04288 7.36836 4.19309 12.6582 5.70721 18.087Z" fill="#EAB200"/>
<path d="M5.70721 18.087C7.22132 23.516 16.3416 33.5351 23.8387 32.4387C31.3359 31.3423 34.3709 19.5452 32.8566 14.1162C31.3425 8.68726 24.0372 5.17518 16.54 6.27177C9.04288 7.36836 4.19309 12.6582 5.70721 18.087Z" fill="#FDBF00"/>
<path d="M103.468 48.3729C95.1164 50.6657 75.7691 50.3701 72.6029 44.3224C69.4367 38.2748 83.6503 28.7654 92.0018 26.4724C100.354 24.1797 109.69 27.2235 112.857 33.2712C116.023 39.319 111.82 46.0802 103.468 48.3729Z" fill="#FDBF00"/>
<path d="M91.3009 80.0687C83.8038 78.9723 69.9678 72.368 71.4819 66.939C72.9961 61.51 89.2872 59.3122 96.7844 60.4088C104.282 61.5054 109.132 66.7953 107.617 72.2243C106.103 77.6531 98.7979 81.1653 91.3009 80.0687Z" fill="#FDBF00"/>
<path d="M58.9837 41.2247C58.9502 41.2004 58.8197 41.1059 58.7864 41.0818C58.1004 40.585 57.3482 40.1365 56.5394 39.7325C68.1953 51.9767 52.5414 82.4307 39.0114 78.8691C36.6667 78.2519 34.6156 77.3832 32.824 76.3635C35.3973 78.6926 38.8174 80.8035 43.319 81.9886C57.4964 85.7207 74.0066 52.1035 58.9837 41.2247Z" fill="#EFB000"/>
<path d="M79.7214 17.5794C82.4315 12.4031 79.7391 6.70653 73.6711 3.73389C76.523 6.78315 77.3536 10.7548 75.4136 14.4599C72.2474 20.5078 59.1151 30.8004 50.7636 28.5074C50.6834 28.4855 50.6052 28.4604 50.5269 28.4362C51.6594 29.9576 53.1559 31.1011 55.0715 31.6269C63.4228 33.9198 76.555 23.6272 79.7214 17.5794Z" fill="#EFB000"/>
<path d="M32.8565 14.1162C32.078 11.3247 29.7662 9.04241 26.6867 7.63049C27.5613 8.63341 28.2054 9.76511 28.5489 10.9967C30.063 16.4257 27.0279 28.2226 19.531 29.3192C17.2443 29.6537 14.8065 28.9527 12.4795 27.6643C15.8951 30.7337 20.0718 32.9894 23.8389 32.4385C31.3356 31.3421 34.3708 19.5453 32.8565 14.1162Z" fill="#EFB000"/>
<path d="M112.857 33.2712C111.63 30.9289 109.476 29.0399 106.814 27.7343C107.505 28.474 108.093 29.2804 108.549 30.1519C111.715 36.1994 107.512 42.9609 99.16 45.2536C92.7238 47.0206 79.7592 47.2494 72.7009 44.494C76.142 50.3747 95.1963 50.6437 103.468 48.3729C111.819 46.0802 116.023 39.319 112.857 33.2712Z" fill="#EFB000"/>
<path d="M107.617 72.2243C108.788 68.0271 106.153 63.9149 101.433 61.7574C103.275 63.8643 104.045 66.4675 103.309 69.1051C101.795 74.5341 94.4898 78.0462 86.9926 76.9496C83.2625 76.4041 77.9639 74.4949 73.7668 72.0456C77.8203 75.8847 86.0905 79.3068 91.3005 80.0688C98.7979 81.1653 106.103 77.6531 107.617 72.2243Z" fill="#EFB000"/>
<path d="M60.3045 39.9946C55.1958 36.2952 46.4068 34.6707 35.5587 35.4201C26.2187 36.0653 16.4467 38.3855 9.41802 41.6264C1.79466 45.1418 -1.35908 49.1596 0.538601 52.9396C2.62297 57.0916 6.78378 60.5362 12.9059 63.1776C14.5064 63.8683 16.0644 64.642 17.5364 65.4774C18.4529 65.9977 19.7785 65.8815 20.4969 65.2176C21.2153 64.5538 21.0547 63.594 20.138 63.0738C18.5256 62.1586 16.8184 61.3107 15.0649 60.5541C9.79955 58.2822 6.24615 55.3694 4.50253 51.8962C2.89031 48.6845 8.98733 45.4461 11.6836 44.2027C25.0957 38.0178 48.444 35.7251 57.3223 42.1542L57.5196 42.2971C66.3979 48.726 63.2317 65.6336 54.6908 75.3458C52.9737 77.2984 48.5011 81.714 44.0664 80.5457C39.2701 79.2831 35.2475 76.7099 32.1102 72.8971C30.2416 70.626 28.0063 68.5013 25.4672 66.5819C24.6613 65.9727 23.3267 65.9521 22.4857 66.5355C21.6447 67.1189 21.6159 68.0855 22.4215 68.6945C24.7406 70.4475 26.7815 72.3876 28.4873 74.4605C32.1349 78.8936 36.8918 81.9068 42.6254 83.4161C43.6169 83.6772 44.6199 83.8063 45.6281 83.8063C49.9278 83.8063 54.3158 81.4582 58.2483 76.9864C62.724 71.8969 65.928 64.8204 66.8189 58.0569C67.8538 50.2009 65.6104 43.837 60.5016 40.1375L60.3045 39.9946Z" fill="black"/>
<path d="M54.2981 33.0549C55.3274 33.3376 56.4271 33.4772 57.5848 33.4772C61.4747 33.4772 66.0161 31.9002 70.7168 28.872C75.5202 25.7776 79.9207 21.4572 81.6675 18.1208C85.2406 11.2957 80.4796 3.63757 71.0542 1.04998C62.5076 -1.2966 52.8023 1.32429 48.4802 7.14604C47.9288 7.88875 48.3132 8.81488 49.3391 9.21404C50.3648 9.61337 51.6437 9.33512 52.1949 8.59208C55.5186 4.11515 62.9834 2.10047 69.5591 3.90548C76.81 5.89621 80.4726 11.7874 77.7237 17.0382C76.1965 19.955 72.2541 23.7938 67.9134 26.59C63.1155 29.681 58.6973 30.9966 55.7932 30.1992C50.4755 28.7394 48.6393 19.9161 50.3167 12.9104C50.5159 12.0794 49.7467 11.2891 48.5994 11.1449C47.4523 11.0007 46.3605 11.5577 46.1614 12.3885C44.4413 19.5703 45.8292 30.73 54.2981 33.0549Z" fill="black"/>
<path d="M10.3169 28.1682C12.6548 30.3643 17.3664 34.0483 22.6502 34.0488C22.6502 34.0488 22.6507 34.0488 22.6511 34.0488C23.1849 34.0488 23.7162 34.0106 24.2305 33.9354C33.2669 32.6138 36.6008 19.9186 34.898 13.8139C33.3999 8.44263 26.8278 4.54419 19.2708 4.54419C18.2114 4.54419 17.1434 4.62179 16.0969 4.77486C7.47217 6.0365 1.87246 12.1439 3.6145 18.3896C4.41449 21.2572 7.0451 25.0954 10.3169 28.1682ZM16.932 7.76867C17.7044 7.65563 18.4912 7.59837 19.2708 7.59837C24.8282 7.59837 29.6617 10.4667 30.7639 14.4186C32.2114 19.6084 28.9881 30.1239 23.3954 30.9418C23.1553 30.9767 22.9051 30.9948 22.6511 30.9948H22.6507C16.976 30.9945 9.10161 22.636 7.74858 17.7848C6.46714 13.1899 10.5867 8.6966 16.932 7.76867Z" fill="black"/>
<path d="M114.803 32.7298C112.126 27.6168 105.256 24.1816 97.7067 24.1816C95.4939 24.1816 93.3146 24.472 91.2289 25.0446C86.6217 26.3092 80.6557 29.4961 76.382 32.9744C70.9554 37.3914 68.9039 41.6139 70.6056 44.864C73.6946 50.7641 87.2398 51.2225 91.3179 51.2225C96.208 51.2225 100.9 50.7044 104.19 49.8011C108.756 48.5475 112.375 46.0816 114.379 42.8572C116.383 39.6327 116.534 36.0361 114.803 32.7298ZM110.533 41.6032C108.991 44.0835 106.207 45.9807 102.695 46.9451C99.9048 47.7109 95.6518 48.1682 91.3177 48.1682C82.5266 48.1682 75.9445 46.446 74.5491 43.781C73.4481 41.6777 75.2646 38.4787 79.5333 35.0043C83.3948 31.8611 88.6959 29.0061 92.724 27.9003C94.3303 27.4593 96.0066 27.2357 97.7067 27.2357C103.514 27.2357 108.8 29.8785 110.86 33.8124C112.191 36.356 112.075 39.1229 110.533 41.6032Z" fill="black"/>
<path d="M97.1763 58.9121C95.796 58.7102 94.1841 58.6078 92.3856 58.6078C84.3603 58.6078 71.021 60.7877 69.3893 66.6368C67.5641 73.1804 82.4273 80.3326 90.8581 81.5657C91.9046 81.7187 92.9726 81.7963 94.032 81.7963C101.589 81.7963 108.161 77.8979 109.659 72.5267C110.503 69.5012 109.67 66.4188 107.312 63.8474C104.954 61.2759 101.354 59.5233 97.1763 58.9121ZM105.524 71.9219C104.422 75.8737 99.5885 78.7422 94.0313 78.7422C93.2517 78.7422 92.4649 78.6849 91.6925 78.5719C84.5257 77.5237 72.3938 71.2911 73.5232 67.2414C74.4403 63.9533 84.1999 61.662 92.3854 61.662C93.8827 61.662 95.2505 61.7463 96.3409 61.9059C99.4147 62.3555 102.063 63.645 103.797 65.537C105.532 67.4286 106.145 69.6961 105.524 71.9219Z" fill="black"/>
</g>
<defs>
<clipPath id="clip0_1_142">
<rect width="116" height="84" fill="white"/>
</clipPath>
</defs>
</svg>
