<svg width="30" height="20" viewBox="0 0 30 20" fill="none" xmlns="http://www.w3.org/2000/svg">
<g clip-path="url(#clip0_28_241)">
<path d="M30 3.58984H0V16.4104H30V3.58984Z" fill="white" stroke="black" stroke-width="15.3846"/>
<path d="M11.2769 12.5315L12.5599 7.51204H14.6122L13.3282 12.5315H11.2769ZM20.7427 7.62024C20.3362 7.51855 19.699 7.40942 18.9034 7.40942C16.8755 7.40942 15.4471 8.09022 15.4349 9.06594C15.4235 9.78719 16.4547 10.1896 17.2331 10.4297C18.032 10.6758 18.3005 10.8326 18.2967 11.0523C18.2915 11.3888 17.6587 11.5424 17.0688 11.5424C16.2475 11.5424 15.8111 11.4663 15.1371 11.279L14.8725 11.1992L14.5846 12.3229C15.0639 12.4631 15.9503 12.5844 16.8707 12.5907C19.028 12.5907 20.4284 11.9177 20.4444 10.8757C20.452 10.3047 19.9053 9.87019 18.7212 9.51191C18.0039 9.27971 17.5646 9.12476 17.5693 8.88963C17.5693 8.68099 17.9411 8.45789 18.7447 8.45789C19.4157 8.45094 19.9019 8.5485 20.2807 8.65019L20.4645 8.70812L20.7427 7.62024ZM26.0238 7.51196H24.438C23.9468 7.51196 23.5791 7.60135 23.3634 7.92822L20.3155 12.5282H22.4706C22.4706 12.5282 22.8229 11.9097 22.9025 11.7739C23.138 11.7739 25.2316 11.7761 25.5309 11.7761C25.5922 11.9518 25.7805 12.5282 25.7805 12.5282H27.6849L26.0238 7.51181V7.51196ZM23.5078 10.7532C23.6775 10.464 24.3255 9.35006 24.3255 9.35006C24.3134 9.36342 24.494 9.05945 24.5975 8.87099L24.7362 9.30376C24.7362 9.30376 25.1292 10.5019 25.2114 10.7532H23.5078V10.7532ZM9.5347 7.51196L7.52551 10.935L7.31147 10.2394C6.93739 9.43753 5.77205 8.56873 4.46924 8.13378L6.30643 12.5235L8.47778 12.5219L11.7087 7.51191L9.5347 7.51189" fill="#0E4595"/>
<path d="M5.65069 7.51172H2.34142L2.31519 7.61615C4.88976 8.03164 6.59326 9.03572 7.30057 10.2423L6.58099 7.93564C6.4568 7.6178 6.09649 7.52292 5.65076 7.51185" fill="#F2AE14"/>
</g>
<defs>
<clipPath id="clip0_28_241">
<rect width="30" height="20" fill="white"/>
</clipPath>
</defs>
</svg>
